<?xml version="1.0" encoding="UTF-8"?>
<svg width="286px" height="128px" viewBox="0 0 286 128" version="1.1" xmlns="http://www.w3.org/2000/svg" xmlns:xlink="http://www.w3.org/1999/xlink">
    <!-- Generator: Sketch 45.2 (43514) - http://www.bohemiancoding.com/sketch -->
    <title>Path 2</title>
    <desc>Created with Sketch.</desc>
    <defs></defs>
    <g id="Logo" stroke="none" stroke-width="1" fill="none" fill-rule="evenodd">
        <g id="meetpa_black_hor" transform="translate(-62.000000, -64.000000)" fill-rule="nonzero" fill="#262626">
            <g transform="translate(20.000000, 20.000000)" id="Path-2">
                <path d="M114.558489,100.27194 L50,164 L42,156 L57,141.109489 L57,48 L67,44 L110.5,88 L154,44 L164,48 L164,121.440919 L115,172 L105,168 L105,132 L116,132 L116,155 L153,117 L153,63 L114.604728,100.27194 L114.558489,100.27194 Z M68,130.189781 L102.104769,96.333952 L68,63 L68,130.189781 Z M142.315068,92.0604311 C139.558322,92.0604311 137.323538,89.8303098 137.323538,87.0793158 C137.323538,84.3283218 139.558322,82.0982005 142.315068,82.0982005 C145.071814,82.0982005 147.306599,84.3283218 147.306599,87.0793158 C147.306599,89.8303098 145.071814,92.0604311 142.315068,92.0604311 Z M301.034406,67.155405 L301.034406,59.1850703 L328,59.1850703 L328,67.155405 L318.879284,67.155405 L318.879284,114.977413 L310.155121,114.977413 L310.155121,67.155405 L301.034406,67.155405 Z M210.373939,121.440919 C215.842817,121.440919 218.527539,124.48868 218.527539,130.084568 L218.527539,134.631228 C218.527539,140.227117 215.842817,143.274878 210.373939,143.274878 L207.788651,143.274878 L207.788651,156.415223 L202.319773,156.415223 L202.319773,121.440919 L210.373939,121.440919 Z M210.373939,126.437248 L207.788651,126.437248 L207.788651,138.278548 L210.373939,138.278548 C212.114036,138.278548 213.058661,137.479136 213.058661,134.980971 L213.058661,129.734825 C213.058661,127.236661 212.114036,126.437248 210.373939,126.437248 Z M233.442661,121.440919 L239.010974,156.415223 L233.492378,156.415223 L232.547754,150.069885 L225.835949,150.069885 L224.891325,156.415223 L219.8699,156.415223 L225.438212,121.440919 L233.442661,121.440919 Z M229.166993,127.636367 L226.531988,145.323372 L231.801998,145.323372 L229.166993,127.636367 Z M252.235716,143.374804 L257.406291,143.374804 L257.406291,148.02139 C257.406291,153.617279 254.622135,156.81493 249.252691,156.81493 C243.883247,156.81493 241.099091,153.617279 241.099091,148.02139 L241.099091,129.834752 C241.099091,124.238863 243.883247,121.041212 249.252691,121.041212 C254.622135,121.041212 257.406291,124.238863 257.406291,129.834752 L257.406291,133.232256 L252.235716,133.232256 L252.235716,129.485009 C252.235716,126.986844 251.14194,126.037542 249.401842,126.037542 C247.661745,126.037542 246.567969,126.986844 246.567969,129.485009 L246.567969,148.371133 C246.567969,150.869298 247.661745,151.768637 249.401842,151.768637 C251.14194,151.768637 252.235716,150.869298 252.235716,148.371133 L252.235716,143.374804 Z M273.216321,156.415223 L267.896594,142.475465 L266.206214,145.673116 L266.206214,156.415223 L260.737335,156.415223 L260.737335,121.440919 L266.206214,121.440919 L266.206214,136.679723 L273.365472,121.440919 L278.834351,121.440919 L271.227638,137.029466 L278.834351,156.415223 L273.216321,156.415223 Z M281.320204,156.415223 L281.320204,121.440919 L286.789083,121.440919 L286.789083,156.415223 L281.320204,156.415223 Z M302.449961,156.415223 L295.638722,131.083834 L295.638722,156.415223 L290.716732,156.415223 L290.716732,121.440919 L297.577688,121.440919 L303.195717,142.375538 L303.195717,121.440919 L308.067991,121.440919 L308.067991,156.415223 L302.449961,156.415223 Z M320.198957,141.925869 L320.198957,136.929539 L327.855386,136.929539 L327.855386,148.02139 C327.855386,153.617279 325.07123,156.81493 319.701786,156.81493 C314.332342,156.81493 311.548186,153.617279 311.548186,148.02139 L311.548186,129.834752 C311.548186,124.238863 314.332342,121.041212 319.701786,121.041212 C325.07123,121.041212 327.855386,124.238863 327.855386,129.834752 L327.855386,133.232256 L322.684811,133.232256 L322.684811,129.485009 C322.684811,126.986844 321.591035,126.037542 319.850937,126.037542 C318.11084,126.037542 317.017064,126.986844 317.017064,129.485009 L317.017064,148.371133 C317.017064,150.869298 318.11084,151.768637 319.850937,151.768637 C321.591035,151.768637 322.684811,150.869298 322.684811,148.371133 L322.684811,141.925869 L320.198957,141.925869 Z M214.347951,59.1850703 L220.772107,98.7976339 L226.7204,59.1850703 L238.854917,59.1850703 L238.854917,114.977413 L230.606618,114.977413 L230.606618,74.966333 L224.579015,114.977413 L216.330715,114.977413 L209.827248,75.5242565 L209.827248,114.977413 L202.213433,114.977413 L202.213433,59.1850703 L214.347951,59.1850703 Z M253.923926,67.155405 L253.923926,82.6975577 L265.899822,82.6975577 L265.899822,90.6678925 L253.923926,90.6678925 L253.923926,107.007079 L268.992935,107.007079 L268.992935,114.977413 L245.199763,114.977413 L245.199763,59.1850703 L268.992935,59.1850703 L268.992935,67.155405 L253.923926,67.155405 Z M283.110216,67.155405 L283.110216,82.6975577 L295.086113,82.6975577 L295.086113,90.6678925 L283.110216,90.6678925 L283.110216,107.007079 L298.179225,107.007079 L298.179225,114.977413 L274.386054,114.977413 L274.386054,59.1850703 L298.179225,59.1850703 L298.179225,67.155405 L283.110216,67.155405 Z"></path>
            </g>
        </g>
    </g>
</svg>