<?xml version="1.0" encoding="UTF-8"?>
<svg width="95px" height="101px" viewBox="0 0 95 101" version="1.1" xmlns="http://www.w3.org/2000/svg" xmlns:xlink="http://www.w3.org/1999/xlink">
    <!-- Generator: Sketch 46.2 (44496) - http://www.bohemiancoding.com/sketch -->
    <title>error splash</title>
    <desc>Created with Sketch.</desc>
    <defs>
        <ellipse id="path-1" cx="80.2423601" cy="33.907166" rx="3.83963879" ry="3.83162714"></ellipse>
        <mask id="mask-2" maskContentUnits="userSpaceOnUse" maskUnits="objectBoundingBox" x="0" y="0" width="7.67927758" height="7.66325428" fill="white">
            <use xlink:href="#path-1"></use>
        </mask>
    </defs>
    <g id="1.-Dashboard" stroke="none" stroke-width="1" fill="none" fill-rule="evenodd" stroke-dasharray="5,3">
        <g id="1.0.1-Waiting" transform="translate(-752.000000, -410.000000)" stroke="#AAAAAA">
            <g id="error-splash" transform="translate(749.000000, 410.000000)">
                <path d="M58.8911453,44.0553384 L9.23076923,93.0769231 L3.07692308,86.9230769 L14.6153846,75.4688377 L14.6153846,3.84615385 L22.3076923,0.769230769 L55.7692308,34.6153846 L89.2307692,0.769230769 L96.9230769,3.84615385 L96.9230769,60.3391682 L59.2307692,99.2307692 L50.7692308,96.1538462 L50.7692308,68.4615385 L60,68.4615385 L60,85.3846154 L88.4615385,56.9230769 L88.4615385,15.3846154 L58.9267136,44.0553384 L58.8911453,44.0553384 Z M23.0769231,67.0690623 L49.3113607,41.0261169 L23.0769231,15.3846154 L23.0769231,67.0690623 Z" id="Path-2" stroke-width="2" fill-rule="nonzero"></path>
                <use id="Path" mask="url(#mask-2)" stroke-width="4" xlink:href="#path-1"></use>
            </g>
        </g>
    </g>
</svg>